<svg version="1.1" id="Layer_1" xmlns="http://www.w3.org/2000/svg" xmlns:xlink="http://www.w3.org/1999/xlink" x="0px" y="0px"
	 width="100%" viewBox="0 0 1280 801" enable-background="new 0 0 1280 801" xml:space="preserve">
<path fill="#616265" opacity="1.000000" stroke="none" 
	d="
M894.000000,802.000000 
	C615.305298,802.000000 336.610596,802.000000 57.526306,801.623779 
	C56.029350,800.631042 54.988251,799.808228 53.804939,799.428406 
	C27.332100,790.929810 10.299089,773.388916 2.879826,746.537781 
	C2.703784,745.900696 1.646341,745.507141 1.000003,745.000000 
	C1.000000,516.305298 1.000000,287.610596 1.384186,58.544968 
	C2.112811,57.837986 2.666660,57.557125 2.771827,57.158028 
	C10.255782,28.757589 28.156446,10.700344 56.458931,2.880314 
	C57.097080,2.703992 57.491753,1.646473 58.000000,1.000000 
	C336.361359,1.000000 614.722717,1.000000 893.370483,1.345792 
	C897.235840,8.379081 900.709961,15.125183 904.413452,21.742981 
	C914.858459,40.407242 925.464111,58.981819 935.877747,77.663483 
	C943.416504,91.187782 950.681519,104.864464 958.191101,118.405289 
	C969.129639,138.129013 980.199524,157.779846 991.173157,177.484161 
	C999.896729,193.148117 1008.528503,208.863205 1017.258057,224.523834 
	C1028.151367,244.066147 1039.147095,263.551361 1050.015869,283.107269 
	C1059.143433,299.530426 1068.080811,316.059509 1077.231567,332.469604 
	C1089.157837,353.856689 1101.171997,375.195282 1113.255737,396.493713 
	C1114.984863,399.541443 1115.206421,402.077515 1113.420288,405.248230 
	C1104.784058,420.578857 1096.340088,436.017944 1087.856812,451.434387 
	C1080.489990,464.821533 1073.222168,478.263458 1065.802002,491.620850 
	C1054.447998,512.059814 1042.983154,532.437134 1031.599854,552.859741 
	C1024.560547,565.488770 1017.611328,578.167908 1010.575012,590.798584 
	C999.420288,610.822083 988.194885,630.806213 977.060425,650.840881 
	C969.861206,663.794556 962.813293,676.832275 955.621704,689.790283 
	C944.129456,710.497192 932.585999,731.175659 921.040405,751.852905 
	C915.199829,762.312744 909.207458,772.689148 903.476257,783.208252 
	C900.121582,789.365417 897.146057,795.729187 894.000000,802.000000 
M276.494843,461.059875 
	C285.334686,475.367035 294.188171,489.665833 303.011322,503.983246 
	C318.217773,528.658813 333.356079,553.376770 348.717133,577.955627 
	C349.685608,579.505188 352.319855,580.847412 354.194733,580.868103 
	C373.358215,581.079224 392.524963,581.004150 411.690765,580.978699 
	C412.968170,580.977051 414.245209,580.729431 415.673584,580.580444 
	C415.673584,461.379089 415.673584,342.481537 415.673584,223.472351 
	C395.991547,223.472351 376.639130,223.472351 356.744934,223.472351 
	C356.744934,311.487457 356.744934,399.031891 356.744934,487.942780 
	C355.160919,486.111664 354.368591,485.403717 353.827667,484.538605 
	C347.717163,474.765717 341.674683,464.950348 335.557220,455.181824 
	C319.777954,429.984863 303.872589,404.866302 288.200073,379.603241 
	C271.126160,352.081238 254.287506,324.413422 237.290619,296.843475 
	C222.873978,273.458832 208.364380,250.131516 193.936691,226.753677 
	C192.360397,224.199509 190.623062,222.862167 187.263718,222.900146 
	C168.600235,223.111160 149.933121,222.994095 131.267288,223.014542 
	C129.661697,223.016296 128.056290,223.201782 126.339828,223.308838 
	C126.339828,342.650085 126.339828,461.547607 126.339828,580.690186 
	C145.915314,580.690186 165.149307,580.690186 185.108307,580.690186 
	C185.108307,492.721832 185.108307,405.059509 185.108307,317.397186 
	C185.531006,317.247833 185.953690,317.098450 186.376389,316.949066 
	C187.330368,318.139862 188.410294,319.251282 189.218719,320.533813 
	C196.780472,332.530243 204.352325,344.520966 211.813660,356.579926 
	C233.238586,391.206726 254.613342,425.864624 276.494843,461.059875 
M830.995605,438.500610 
	C830.995605,485.895477 830.995605,533.290344 830.995605,580.577759 
	C852.149780,580.577759 872.382446,580.577759 892.639282,580.577759 
	C892.639282,461.274933 892.639282,342.394287 892.639282,223.325943 
	C872.045837,223.325943 851.814697,223.325943 830.832275,223.325943 
	C830.832275,270.661407 830.832275,317.677582 830.832275,364.584534 
	C775.852905,364.584534 721.627197,364.584534 666.828613,364.584534 
	C666.828613,317.276093 666.828613,270.380096 666.828613,223.344177 
	C646.022339,223.344177 625.793152,223.344177 605.485779,223.344177 
	C605.485779,342.689178 605.485779,461.689911 605.485779,580.567566 
	C626.172485,580.567566 646.404114,580.567566 667.201111,580.567566 
	C667.201111,526.576721 667.201111,473.015320 667.201111,419.319458 
	C722.004089,419.319458 776.233276,419.319458 830.995605,419.319458 
	C830.995605,425.584290 830.995605,431.542633 830.995605,438.500610 
M479.000427,248.500000 
	C479.000427,359.220764 479.000427,469.941559 479.000427,580.585693 
	C500.132202,580.585693 520.365234,580.585693 540.640015,580.585693 
	C540.640015,461.286316 540.640015,342.401276 540.640015,223.325989 
	C520.047302,223.325989 499.815491,223.325989 479.000427,223.325989 
	C479.000427,231.592682 479.000427,239.546341 479.000427,248.500000 
z"/>
<path fill="#20558A" opacity="1.000000" stroke="none" 
	d="
M1281.000000,398.000000 
	C1281.000000,399.714355 1281.000000,401.428711 1280.646484,403.455444 
	C1279.538452,404.815582 1278.664917,405.797943 1278.047363,406.921112 
	C1270.657227,420.364319 1263.358032,433.857574 1255.931030,447.280304 
	C1244.194824,468.490997 1232.363892,489.649323 1220.603027,510.846497 
	C1211.960083,526.423828 1203.399536,542.046997 1194.739990,557.615051 
	C1183.515381,577.794800 1172.185425,597.915955 1160.982300,618.107605 
	C1151.858398,634.552002 1142.907593,651.092468 1133.784424,667.537415 
	C1120.580322,691.338684 1107.433228,715.173706 1093.967285,738.826599 
	C1088.433838,748.546143 1083.209473,758.762695 1075.958862,767.116699 
	C1060.954590,784.404114 1041.576538,795.156067 1019.092102,800.085693 
	C1018.293213,800.260864 1017.692871,801.341370 1017.000000,802.000000 
	C993.979126,802.000000 970.958191,802.000000 947.593628,801.677979 
	C948.551270,799.070557 949.867859,796.793762 951.151672,794.498718 
	C967.402710,765.446167 983.702515,736.420654 999.877869,707.326050 
	C1010.699768,687.860657 1021.261597,668.250671 1032.085693,648.786499 
	C1049.467285,617.530396 1066.988403,586.351746 1084.414551,555.120239 
	C1095.988892,534.376526 1107.528442,513.613220 1119.033081,492.830841 
	C1135.343994,463.366302 1151.564453,433.851562 1167.970703,404.440369 
	C1169.383789,401.906952 1169.225708,400.029907 1167.951782,397.734619 
	C1160.586548,384.465393 1153.315918,371.143738 1145.938477,357.881348 
	C1131.505737,331.935730 1116.973755,306.045197 1102.578125,280.079102 
	C1091.297607,259.732025 1080.223267,239.270721 1068.944092,218.922928 
	C1054.562378,192.978043 1040.064453,167.097687 1025.621094,141.186996 
	C1015.430359,122.905243 1005.203369,104.643585 995.071045,86.329544 
	C979.345581,57.905785 963.687012,29.445042 948.000000,1.000000 
	C972.020874,1.000000 996.041809,1.000000 1020.460693,1.389009 
	C1021.358704,2.153992 1021.811279,2.755762 1022.365967,2.872494 
	C1032.807739,5.069875 1042.369751,9.338099 1051.504639,14.779403 
	C1064.914429,22.767025 1076.646973,32.620010 1084.878052,45.971779 
	C1090.841064,55.644260 1095.915894,65.862770 1101.432007,75.812729 
	C1113.182861,97.009102 1124.993164,118.172554 1136.720459,139.381989 
	C1144.308472,153.105515 1151.741089,166.915070 1159.334717,180.635452 
	C1172.509399,204.439987 1185.798950,228.181000 1198.954468,251.996048 
	C1207.093872,266.730347 1215.008057,281.589050 1223.142334,296.326233 
	C1235.015869,317.838074 1247.022949,339.276123 1258.919556,360.775269 
	C1264.744141,371.301544 1270.375610,381.935242 1276.267822,392.422913 
	C1277.440186,394.509460 1279.402222,396.152466 1281.000000,398.000000 
z"/>
<path fill="#000000" opacity="1.000000" stroke="none" 
	d="
M1017.468628,802.000000 
	C1017.692871,801.341370 1018.293213,800.260864 1019.092102,800.085693 
	C1041.576538,795.156067 1060.954590,784.404114 1075.958862,767.116699 
	C1083.209473,758.762695 1088.433838,748.546143 1093.967285,738.826599 
	C1107.433228,715.173706 1120.580322,691.338684 1133.784424,667.537415 
	C1142.907593,651.092468 1151.858398,634.552002 1160.982300,618.107605 
	C1172.185425,597.915955 1183.515381,577.794800 1194.739990,557.615051 
	C1203.399536,542.046997 1211.960083,526.423828 1220.603027,510.846497 
	C1232.363892,489.649323 1244.194824,468.490997 1255.931030,447.280304 
	C1263.358032,433.857574 1270.657227,420.364319 1278.047363,406.921112 
	C1278.664917,405.797943 1279.538452,404.815582 1280.646484,403.883911 
	C1281.000000,536.578979 1281.000000,669.157898 1281.000000,802.000000 
	C1193.312622,802.000000 1105.625000,802.000000 1017.468628,802.000000 
z"/>
<path fill="#000000" opacity="1.000000" stroke="none" 
	d="
M1281.000000,397.531342 
	C1279.402222,396.152466 1277.440186,394.509460 1276.267822,392.422913 
	C1270.375610,381.935242 1264.744141,371.301544 1258.919556,360.775269 
	C1247.022949,339.276123 1235.015869,317.838074 1223.142334,296.326233 
	C1215.008057,281.589050 1207.093872,266.730347 1198.954468,251.996048 
	C1185.798950,228.181000 1172.509399,204.439987 1159.334717,180.635452 
	C1151.741089,166.915070 1144.308472,153.105515 1136.720459,139.381989 
	C1124.993164,118.172554 1113.182861,97.009102 1101.432007,75.812729 
	C1095.915894,65.862770 1090.841064,55.644260 1084.878052,45.971779 
	C1076.646973,32.620010 1064.914429,22.767025 1051.504639,14.779403 
	C1042.369751,9.338099 1032.807739,5.069875 1022.365967,2.872494 
	C1021.811279,2.755762 1021.358704,2.153992 1020.929321,1.389009 
	C1107.608887,1.000000 1194.217896,1.000000 1281.000000,1.000000 
	C1281.000000,133.020844 1281.000000,265.041779 1281.000000,397.531342 
z"/>
<path fill="#000000" opacity="1.000000" stroke="none" 
	d="
M947.531372,1.000000 
	C963.687012,29.445042 979.345581,57.905785 995.071045,86.329544 
	C1005.203369,104.643585 1015.430359,122.905243 1025.621094,141.186996 
	C1040.064453,167.097687 1054.562378,192.978043 1068.944092,218.922928 
	C1080.223267,239.270721 1091.297607,259.732025 1102.578125,280.079102 
	C1116.973755,306.045197 1131.505737,331.935730 1145.938477,357.881348 
	C1153.315918,371.143738 1160.586548,384.465393 1167.951782,397.734619 
	C1169.225708,400.029907 1169.383789,401.906952 1167.970703,404.440369 
	C1151.564453,433.851562 1135.343994,463.366302 1119.033081,492.830841 
	C1107.528442,513.613220 1095.988892,534.376526 1084.414551,555.120239 
	C1066.988403,586.351746 1049.467285,617.530396 1032.085693,648.786499 
	C1021.261597,668.250671 1010.699768,687.860657 999.877869,707.326050 
	C983.702515,736.420654 967.402710,765.446167 951.151672,794.498718 
	C949.867859,796.793762 948.551270,799.070557 947.125000,801.677979 
	C929.645752,802.000000 912.291565,802.000000 894.468628,802.000000 
	C897.146057,795.729187 900.121582,789.365417 903.476257,783.208252 
	C909.207458,772.689148 915.199829,762.312744 921.040405,751.852905 
	C932.585999,731.175659 944.129456,710.497192 955.621704,689.790283 
	C962.813293,676.832275 969.861206,663.794556 977.060425,650.840881 
	C988.194885,630.806213 999.420288,610.822083 1010.575012,590.798584 
	C1017.611328,578.167908 1024.560547,565.488770 1031.599854,552.859741 
	C1042.983154,532.437134 1054.447998,512.059814 1065.802002,491.620850 
	C1073.222168,478.263458 1080.489990,464.821533 1087.856812,451.434387 
	C1096.340088,436.017944 1104.784058,420.578857 1113.420288,405.248230 
	C1115.206421,402.077515 1114.984863,399.541443 1113.255737,396.493713 
	C1101.171997,375.195282 1089.157837,353.856689 1077.231567,332.469604 
	C1068.080811,316.059509 1059.143433,299.530426 1050.015869,283.107269 
	C1039.147095,263.551361 1028.151367,244.066147 1017.258057,224.523834 
	C1008.528503,208.863205 999.896729,193.148117 991.173157,177.484161 
	C980.199524,157.779846 969.129639,138.129013 958.191101,118.405289 
	C950.681519,104.864464 943.416504,91.187782 935.877747,77.663483 
	C925.464111,58.981819 914.858459,40.407242 904.413452,21.742981 
	C900.709961,15.125183 897.235840,8.379081 893.828491,1.345792 
	C911.687561,1.000000 929.375122,1.000000 947.531372,1.000000 
z"/>
<path fill="#000000" opacity="1.000000" stroke="none" 
	d="
M1.000003,745.468628 
	C1.646341,745.507141 2.703784,745.900696 2.879826,746.537781 
	C10.299089,773.388916 27.332100,790.929810 53.804939,799.428406 
	C54.988251,799.808228 56.029350,800.631042 57.068352,801.623779 
	C38.405895,802.000000 19.811790,802.000000 1.000000,802.000000 
	C1.000000,783.312988 1.000000,764.625183 1.000003,745.468628 
z"/>
<path fill="#000000" opacity="1.000000" stroke="none" 
	d="
M57.531342,1.000000 
	C57.491753,1.646473 57.097080,2.703992 56.458931,2.880314 
	C28.156446,10.700344 10.255782,28.757589 2.771827,57.158028 
	C2.666660,57.557125 2.112811,57.837986 1.384186,58.087013 
	C1.000000,39.073208 1.000000,20.146416 1.000000,1.000000 
	C19.686987,1.000000 38.374836,1.000000 57.531342,1.000000 
z"/>
<path fill="#000000" opacity="1.000000" stroke="none" 
	d="
M276.251343,460.785095 
	C254.613342,425.864624 233.238586,391.206726 211.813660,356.579926 
	C204.352325,344.520966 196.780472,332.530243 189.218719,320.533813 
	C188.410294,319.251282 187.330368,318.139862 186.376389,316.949066 
	C185.953690,317.098450 185.531006,317.247833 185.108307,317.397186 
	C185.108307,405.059509 185.108307,492.721832 185.108307,580.690186 
	C165.149307,580.690186 145.915314,580.690186 126.339828,580.690186 
	C126.339828,461.547607 126.339828,342.650085 126.339828,223.308838 
	C128.056290,223.201782 129.661697,223.016296 131.267288,223.014542 
	C149.933121,222.994095 168.600235,223.111160 187.263718,222.900146 
	C190.623062,222.862167 192.360397,224.199509 193.936691,226.753677 
	C208.364380,250.131516 222.873978,273.458832 237.290619,296.843475 
	C254.287506,324.413422 271.126160,352.081238 288.200073,379.603241 
	C303.872589,404.866302 319.777954,429.984863 335.557220,455.181824 
	C341.674683,464.950348 347.717163,474.765717 353.827667,484.538605 
	C354.368591,485.403717 355.160919,486.111664 356.744934,487.942780 
	C356.744934,399.031891 356.744934,311.487457 356.744934,223.472351 
	C376.639130,223.472351 395.991547,223.472351 415.673584,223.472351 
	C415.673584,342.481537 415.673584,461.379089 415.673584,580.580444 
	C414.245209,580.729431 412.968170,580.977051 411.690765,580.978699 
	C392.524963,581.004150 373.358215,581.079224 354.194733,580.868103 
	C352.319855,580.847412 349.685608,579.505188 348.717133,577.955627 
	C333.356079,553.376770 318.217773,528.658813 303.011322,503.983246 
	C294.188171,489.665833 285.334686,475.367035 276.251343,460.785095 
z"/>
<path fill="#000000" opacity="1.000000" stroke="none" 
	d="
M830.995605,438.000793 
	C830.995605,431.542633 830.995605,425.584290 830.995605,419.319458 
	C776.233276,419.319458 722.004089,419.319458 667.201111,419.319458 
	C667.201111,473.015320 667.201111,526.576721 667.201111,580.567566 
	C646.404114,580.567566 626.172485,580.567566 605.485779,580.567566 
	C605.485779,461.689911 605.485779,342.689178 605.485779,223.344177 
	C625.793152,223.344177 646.022339,223.344177 666.828613,223.344177 
	C666.828613,270.380096 666.828613,317.276093 666.828613,364.584534 
	C721.627197,364.584534 775.852905,364.584534 830.832275,364.584534 
	C830.832275,317.677582 830.832275,270.661407 830.832275,223.325943 
	C851.814697,223.325943 872.045837,223.325943 892.639282,223.325943 
	C892.639282,342.394287 892.639282,461.274933 892.639282,580.577759 
	C872.382446,580.577759 852.149780,580.577759 830.995605,580.577759 
	C830.995605,533.290344 830.995605,485.895477 830.995605,438.000793 
z"/>
<path fill="#000000" opacity="1.000000" stroke="none" 
	d="
M479.000427,248.000000 
	C479.000427,239.546341 479.000427,231.592682 479.000427,223.325989 
	C499.815491,223.325989 520.047302,223.325989 540.640015,223.325989 
	C540.640015,342.401276 540.640015,461.286316 540.640015,580.585693 
	C520.365234,580.585693 500.132202,580.585693 479.000427,580.585693 
	C479.000427,469.941559 479.000427,359.220764 479.000427,248.000000 
z"/>
</svg>