<svg version="1.1" id="Layer_1" xmlns="http://www.w3.org/2000/svg" xmlns:xlink="http://www.w3.org/1999/xlink" x="0px" y="0px"
	 width="100%" viewBox="0 0 670 1023" enable-background="new 0 0 670 1023" xml:space="preserve">
<path fill="#000000" opacity="1.000000" stroke="none" 
	d="
M671.000000,264.000000 
	C671.000000,517.666565 671.000000,770.833130 671.000000,1023.999756 
	C447.666870,1023.999878 224.333725,1023.999878 1.000447,1023.999939 
	C1.000298,683.000366 1.000298,342.000671 1.000149,1.000768 
	C224.332901,1.000512 447.665802,1.000512 670.999390,1.000256 
	C671.000000,88.500000 671.000000,176.000000 671.000000,264.000000 
M405.904297,367.974670 
	C416.184570,369.314728 426.484955,370.519379 436.737915,372.043274 
	C443.357483,373.027130 450.081116,373.911377 456.446716,375.858368 
	C465.238007,378.547333 474.387177,375.271484 477.978333,366.731598 
	C479.467957,363.189270 479.942657,359.220123 481.030762,354.832947 
	C542.709045,354.832947 604.606812,354.832947 666.994080,354.832947 
	C666.994080,352.111328 666.994019,349.979462 666.994019,347.847595 
	C666.994019,283.352112 666.927124,218.856476 667.100586,154.361481 
	C667.117432,148.118927 665.926819,143.670914 660.918274,139.044449 
	C643.591187,123.038826 627.026855,106.207397 610.178284,89.684013 
	C592.493408,72.340446 574.785889,55.019852 557.146606,37.629993 
	C547.533875,28.153162 537.941833,18.650648 528.558167,8.949150 
	C525.796448,6.093849 523.022522,4.901849 519.002930,4.915736 
	C476.839722,5.061399 434.675842,5.005694 392.512146,5.005700 
	C312.851074,5.005712 233.189972,4.982068 153.529129,5.113703 
	C150.994980,5.117890 147.829147,6.030451 146.034409,7.686405 
	C134.933594,17.928740 124.087196,28.449854 113.259727,38.984680 
	C97.300026,54.513031 81.397385,70.100365 65.524567,85.717598 
	C47.041115,103.903412 28.680077,122.214348 10.100736,140.301300 
	C7.107000,143.215698 5.909999,146.104065 5.914951,150.289719 
	C6.030691,248.116028 6.004530,345.942505 6.004550,443.768951 
	C6.004554,467.933929 5.964560,492.099060 6.079269,516.263489 
	C6.088672,518.244446 6.608338,520.678528 7.821551,522.117493 
	C12.508384,527.676453 17.447992,533.038452 22.519545,538.253967 
	C38.621727,554.813171 54.794113,571.304565 70.998413,587.764038 
	C89.421936,606.477661 107.843704,625.194458 126.470779,643.703979 
	C128.313095,645.534668 131.560043,646.789795 134.188766,646.850525 
	C147.680634,647.161743 161.183548,646.994690 174.682602,646.994690 
	C178.306793,646.994690 181.930984,646.994629 185.672897,646.994629 
	C185.672897,648.258972 185.789307,648.923279 185.655518,649.532593 
	C183.474792,659.464661 186.607208,665.505981 196.355988,667.997620 
	C200.682510,669.103455 205.485977,668.386475 210.073364,668.409485 
	C212.240402,668.420349 214.408463,668.225464 216.576065,668.123779 
	C216.651489,668.546448 216.726913,668.969116 216.802338,669.391724 
	C212.439316,671.537354 207.661728,673.126587 203.828369,675.983032 
	C199.893387,678.915222 196.881287,683.085999 192.143860,688.118408 
	C131.794205,688.118408 69.206055,688.118408 6.346484,688.118408 
	C6.209747,690.071106 6.019075,691.526428 6.018719,692.981689 
	C6.003775,754.144043 5.973866,815.306519 6.129017,876.468506 
	C6.134891,878.783997 7.371475,881.677612 9.015882,883.318237 
	C26.194557,900.457397 43.583225,917.385864 60.895653,934.391174 
	C80.821190,953.963257 100.748352,973.533752 120.634354,993.145996 
	C129.058716,1001.454346 137.287628,1009.963684 145.830688,1018.146423 
	C147.421860,1019.670532 150.086349,1020.875977 152.256912,1020.878235 
	C275.081482,1021.007385 397.906189,1021.007446 520.730774,1020.878845 
	C522.902466,1020.876587 525.550598,1019.672241 527.166077,1018.161926 
	C538.200928,1007.845947 549.093323,997.374023 559.889648,986.807373 
	C578.183472,968.902649 596.402222,950.920959 614.594299,932.912781 
	C625.489563,922.127686 636.270569,911.227356 647.109985,900.385925 
	C651.940918,895.554199 656.314636,890.082764 661.784790,886.132446 
	C665.915283,883.149536 667.065979,880.095825 667.059265,875.427856 
	C666.964172,809.599304 666.994751,743.770569 666.994690,677.941833 
	C666.994690,627.112061 666.968384,576.282288 667.053711,525.452698 
	C667.059448,522.056091 666.172058,519.618652 663.701965,517.124695 
	C647.560486,500.827728 631.683044,484.269623 615.597534,467.916687 
	C592.745056,444.684235 569.754028,421.587952 546.924255,398.333344 
	C544.502869,395.866943 542.056030,394.921265 538.621704,394.934357 
	C506.957672,395.054871 475.292999,395.027649 443.628693,394.958466 
	C441.370667,394.953552 438.769135,394.880951 436.912903,393.817596 
	C424.925995,386.950745 412.829620,380.146759 404.805695,368.238434 
	C404.805695,368.238434 405.068481,367.914124 405.904297,367.974670 
z"/>
<path fill="#8D1717" opacity="1.000000" stroke="none" 
	d="
M404.519592,368.542297 
	C412.829620,380.146759 424.925995,386.950745 436.912903,393.817596 
	C438.769135,394.880951 441.370667,394.953552 443.628693,394.958466 
	C475.292999,395.027649 506.957672,395.054871 538.621704,394.934357 
	C542.056030,394.921265 544.502869,395.866943 546.924255,398.333344 
	C569.754028,421.587952 592.745056,444.684235 615.597534,467.916687 
	C631.683044,484.269623 647.560486,500.827728 663.701965,517.124695 
	C666.172058,519.618652 667.059448,522.056091 667.053711,525.452698 
	C666.968384,576.282288 666.994690,627.112061 666.994690,677.941833 
	C666.994751,743.770569 666.964172,809.599304 667.059265,875.427856 
	C667.065979,880.095825 665.915283,883.149536 661.784790,886.132446 
	C656.314636,890.082764 651.940918,895.554199 647.109985,900.385925 
	C636.270569,911.227356 625.489563,922.127686 614.594299,932.912781 
	C596.402222,950.920959 578.183472,968.902649 559.889648,986.807373 
	C549.093323,997.374023 538.200928,1007.845947 527.166077,1018.161926 
	C525.550598,1019.672241 522.902466,1020.876587 520.730774,1020.878845 
	C397.906189,1021.007446 275.081482,1021.007385 152.256912,1020.878235 
	C150.086349,1020.875977 147.421860,1019.670532 145.830688,1018.146423 
	C137.287628,1009.963684 129.058716,1001.454346 120.634354,993.145996 
	C100.748352,973.533752 80.821190,953.963257 60.895653,934.391174 
	C43.583225,917.385864 26.194557,900.457397 9.015882,883.318237 
	C7.371475,881.677612 6.134891,878.783997 6.129017,876.468506 
	C5.973866,815.306519 6.003775,754.144043 6.018719,692.981689 
	C6.019075,691.526428 6.209747,690.071106 6.346484,688.118408 
	C69.206055,688.118408 131.794205,688.118408 192.143860,688.118408 
	C196.881287,683.085999 199.893387,678.915222 203.828369,675.983032 
	C207.661728,673.126587 212.439316,671.537354 216.802338,669.391724 
	C216.726913,668.969116 216.651489,668.546448 216.576065,668.123779 
	C214.408463,668.225464 212.240402,668.420349 210.073364,668.409485 
	C205.485977,668.386475 200.682510,669.103455 196.355988,667.997620 
	C186.607208,665.505981 183.474792,659.464661 185.655518,649.532593 
	C185.789307,648.923279 185.672897,648.258972 185.672897,646.994629 
	C181.930984,646.994629 178.306793,646.994690 174.682602,646.994690 
	C161.183548,646.994690 147.680634,647.161743 134.188766,646.850525 
	C131.560043,646.789795 128.313095,645.534668 126.470779,643.703979 
	C107.843704,625.194458 89.421936,606.477661 70.998413,587.764038 
	C54.794113,571.304565 38.621727,554.813171 22.519545,538.253967 
	C17.447992,533.038452 12.508384,527.676453 7.821551,522.117493 
	C6.608338,520.678528 6.088672,518.244446 6.079269,516.263489 
	C5.964560,492.099060 6.004554,467.933929 6.004550,443.768951 
	C6.004530,345.942505 6.030691,248.116028 5.914951,150.289719 
	C5.909999,146.104065 7.107000,143.215698 10.100736,140.301300 
	C28.680077,122.214348 47.041115,103.903412 65.524567,85.717598 
	C81.397385,70.100365 97.300026,54.513031 113.259727,38.984680 
	C124.087196,28.449854 134.933594,17.928740 146.034409,7.686405 
	C147.829147,6.030451 150.994980,5.117890 153.529129,5.113703 
	C233.189972,4.982068 312.851074,5.005712 392.512146,5.005700 
	C434.675842,5.005694 476.839722,5.061399 519.002930,4.915736 
	C523.022522,4.901849 525.796448,6.093849 528.558167,8.949150 
	C537.941833,18.650648 547.533875,28.153162 557.146606,37.629993 
	C574.785889,55.019852 592.493408,72.340446 610.178284,89.684013 
	C627.026855,106.207397 643.591187,123.038826 660.918274,139.044449 
	C665.926819,143.670914 667.117432,148.118927 667.100586,154.361481 
	C666.927124,218.856476 666.994019,283.352112 666.994019,347.847595 
	C666.994019,349.979462 666.994080,352.111328 666.994080,354.832947 
	C604.606812,354.832947 542.709045,354.832947 481.030762,354.832947 
	C479.942657,359.220123 479.467957,363.189270 477.978333,366.731598 
	C474.387177,375.271484 465.238007,378.547333 456.446716,375.858368 
	C450.081116,373.911377 443.357483,373.027130 436.737915,372.043274 
	C426.484955,370.519379 416.184570,369.314728 405.353882,367.725525 
	C404.371521,367.492798 403.939575,367.509186 403.507629,367.525574 
	C403.844940,367.864471 404.182251,368.203400 404.519592,368.542297 
M614.002258,492.497864 
	C588.897400,466.935883 563.840698,441.325989 538.587219,415.911652 
	C536.756775,414.069519 533.502380,412.732330 530.896912,412.710327 
	C503.734131,412.480865 476.567688,412.680084 449.405182,412.434174 
	C445.839081,412.401886 442.046539,411.031006 438.788574,409.414215 
	C433.740784,406.909241 429.125427,403.549438 424.216553,400.744965 
	C409.058472,392.085022 396.176941,380.911743 387.082886,365.928772 
	C384.697083,361.998077 383.480530,357.045013 382.908295,352.415436 
	C382.353455,347.926819 384.893829,346.443512 388.815613,348.478485 
	C405.043182,356.898773 422.657898,358.849121 440.489502,360.267487 
	C446.869629,360.774963 453.127319,362.691345 459.485779,363.674561 
	C461.574219,363.997559 464.622711,364.202240 465.761810,363.031006 
	C467.183197,361.569550 467.662323,358.580475 467.469879,356.343781 
	C467.299622,354.364594 465.850708,352.371094 464.616364,350.632385 
	C461.591400,346.371429 458.364410,342.253876 454.649933,337.323669 
	C519.979370,337.323669 584.513489,337.323669 649.125854,337.323669 
	C649.258423,336.106873 649.389465,335.464905 649.389587,334.822906 
	C649.402161,275.160522 649.427673,215.498077 649.301819,155.835953 
	C649.297852,153.971313 648.174438,151.651840 646.815430,150.313614 
	C604.426758,108.571907 561.958496,66.910858 519.406860,25.335260 
	C518.059204,24.018457 515.705078,23.063000 513.819153,23.061304 
	C395.660950,22.954990 277.502716,22.953196 159.344559,23.069698 
	C157.317947,23.071695 154.794434,24.121229 153.339600,25.540030 
	C110.868134,66.959671 68.483215,108.468262 26.201359,150.081390 
	C24.651806,151.606445 23.475250,154.326263 23.472860,156.490753 
	C23.342985,274.148895 23.344971,391.807190 23.464228,509.465363 
	C23.466282,511.491882 24.560163,514.006897 25.988306,515.470764 
	C62.178486,552.567444 98.458138,589.577026 134.848282,626.477417 
	C136.363937,628.014343 139.089127,629.104858 141.264374,629.127991 
	C160.427505,629.331909 179.593719,629.246338 198.759018,629.246399 
	C202.356796,629.246399 205.954575,629.246399 208.833954,629.246399 
	C205.179413,636.298828 201.337860,642.977783 198.212418,649.976440 
	C195.722137,655.552734 196.835175,656.973816 202.834427,656.775513 
	C218.523499,656.256775 233.459366,652.751038 247.254837,644.998108 
	C248.840881,644.106750 250.451248,643.170776 252.166763,642.614319 
	C257.182556,640.987122 263.248474,642.819336 266.209930,646.630493 
	C269.685272,651.103088 267.642334,655.072998 265.104126,658.981445 
	C257.499969,670.690552 246.438446,677.111755 233.039124,680.046387 
	C226.077332,681.571106 218.922256,682.668091 212.292511,685.135376 
	C204.542999,688.019226 204.092072,693.923279 210.457962,699.148254 
	C212.837692,701.101562 215.160248,703.124451 217.508881,705.115540 
	C217.379761,705.471313 217.250626,705.827026 217.121506,706.182739 
	C152.645721,706.182739 88.169945,706.182739 23.457975,706.182739 
	C23.457975,708.647888 23.459126,710.473145 23.457808,712.298462 
	C23.420481,763.961426 23.427067,815.624512 23.258623,867.287048 
	C23.245634,871.271179 24.341848,874.040955 27.205324,876.843201 
	C69.129738,917.870117 110.963112,958.990295 152.715530,1000.192261 
	C155.120300,1002.565308 157.541504,1003.119568 160.668549,1003.117676 
	C249.995483,1003.062927 339.322449,1003.073547 428.649414,1003.073547 
	C456.814087,1003.073547 484.978973,1003.119446 513.142944,1002.979492 
	C515.218445,1002.969177 517.852722,1002.197876 519.276978,1000.807251 
	C561.841614,959.245239 604.306946,917.581238 646.666809,875.810425 
	C648.206055,874.292542 649.295288,871.535400 649.297729,869.354370 
	C649.423523,757.029175 649.423767,644.703796 649.296082,532.378601 
	C649.293579,530.194580 648.144287,527.504395 646.626343,525.911316 
	C636.051758,514.813049 625.238281,503.942413 614.002258,492.497864 
z"/>
<path fill="#FEFEFE" opacity="1.000000" stroke="none" 
	d="
M614.251831,492.748352 
	C625.238281,503.942413 636.051758,514.813049 646.626343,525.911316 
	C648.144287,527.504395 649.293579,530.194580 649.296082,532.378601 
	C649.423767,644.703796 649.423523,757.029175 649.297729,869.354370 
	C649.295288,871.535400 648.206055,874.292542 646.666809,875.810425 
	C604.306946,917.581238 561.841614,959.245239 519.276978,1000.807251 
	C517.852722,1002.197876 515.218445,1002.969177 513.142944,1002.979492 
	C484.978973,1003.119446 456.814087,1003.073547 428.649414,1003.073547 
	C339.322449,1003.073547 249.995483,1003.062927 160.668549,1003.117676 
	C157.541504,1003.119568 155.120300,1002.565308 152.715530,1000.192261 
	C110.963112,958.990295 69.129738,917.870117 27.205324,876.843201 
	C24.341848,874.040955 23.245634,871.271179 23.258623,867.287048 
	C23.427067,815.624512 23.420481,763.961426 23.457808,712.298462 
	C23.459126,710.473145 23.457975,708.647888 23.457975,706.182739 
	C88.169945,706.182739 152.645721,706.182739 217.121506,706.182739 
	C217.250626,705.827026 217.379761,705.471313 217.508881,705.115540 
	C215.160248,703.124451 212.837692,701.101562 210.457962,699.148254 
	C204.092072,693.923279 204.542999,688.019226 212.292511,685.135376 
	C218.922256,682.668091 226.077332,681.571106 233.039124,680.046387 
	C246.438446,677.111755 257.499969,670.690552 265.104126,658.981445 
	C267.642334,655.072998 269.685272,651.103088 266.209930,646.630493 
	C263.248474,642.819336 257.182556,640.987122 252.166763,642.614319 
	C250.451248,643.170776 248.840881,644.106750 247.254837,644.998108 
	C233.459366,652.751038 218.523499,656.256775 202.834427,656.775513 
	C196.835175,656.973816 195.722137,655.552734 198.212418,649.976440 
	C201.337860,642.977783 205.179413,636.298828 208.833954,629.246399 
	C205.954575,629.246399 202.356796,629.246399 198.759018,629.246399 
	C179.593719,629.246338 160.427505,629.331909 141.264374,629.127991 
	C139.089127,629.104858 136.363937,628.014343 134.848282,626.477417 
	C98.458138,589.577026 62.178486,552.567444 25.988306,515.470764 
	C24.560163,514.006897 23.466282,511.491882 23.464228,509.465363 
	C23.344971,391.807190 23.342985,274.148895 23.472860,156.490753 
	C23.475250,154.326263 24.651806,151.606445 26.201359,150.081390 
	C68.483215,108.468262 110.868134,66.959671 153.339600,25.540030 
	C154.794434,24.121229 157.317947,23.071695 159.344559,23.069698 
	C277.502716,22.953196 395.660950,22.954990 513.819153,23.061304 
	C515.705078,23.063000 518.059204,24.018457 519.406860,25.335260 
	C561.958496,66.910858 604.426758,108.571907 646.815430,150.313614 
	C648.174438,151.651840 649.297852,153.971313 649.301819,155.835953 
	C649.427673,215.498077 649.402161,275.160522 649.389587,334.822906 
	C649.389465,335.464905 649.258423,336.106873 649.125854,337.323669 
	C584.513489,337.323669 519.979370,337.323669 454.649933,337.323669 
	C458.364410,342.253876 461.591400,346.371429 464.616364,350.632385 
	C465.850708,352.371094 467.299622,354.364594 467.469879,356.343781 
	C467.662323,358.580475 467.183197,361.569550 465.761810,363.031006 
	C464.622711,364.202240 461.574219,363.997559 459.485779,363.674561 
	C453.127319,362.691345 446.869629,360.774963 440.489502,360.267487 
	C422.657898,358.849121 405.043182,356.898773 388.815613,348.478485 
	C384.893829,346.443512 382.353455,347.926819 382.908295,352.415436 
	C383.480530,357.045013 384.697083,361.998077 387.082886,365.928772 
	C396.176941,380.911743 409.058472,392.085022 424.216553,400.744965 
	C429.125427,403.549438 433.740784,406.909241 438.788574,409.414215 
	C442.046539,411.031006 445.839081,412.401886 449.405182,412.434174 
	C476.567688,412.680084 503.734131,412.480865 530.896912,412.710327 
	C533.502380,412.732330 536.756775,414.069519 538.587219,415.911652 
	C563.840698,441.325989 588.897400,466.935883 614.251831,492.748352 
M94.005623,107.505653 
	C77.098846,124.067963 60.135868,140.573883 43.373814,157.281387 
	C41.730881,158.918976 40.467724,161.794739 40.464855,164.097565 
	C40.324684,276.592438 40.325699,389.087585 40.457413,501.582489 
	C40.460140,503.912079 41.577564,506.826630 43.188606,508.481537 
	C75.853455,542.036438 108.634407,575.478821 141.541855,608.795776 
	C143.259811,610.535095 146.300003,611.844238 148.736481,611.863647 
	C175.733566,612.078674 202.735580,611.790466 229.730347,612.121216 
	C238.251099,612.225708 245.910675,610.437195 253.807617,607.308411 
	C268.879547,601.336853 268.658813,591.816772 268.700714,578.070923 
	C268.703766,577.071045 266.056366,574.964783 265.292908,575.232361 
	C258.379059,577.655396 251.796722,575.607849 245.116989,574.349670 
	C235.965286,572.625977 226.845261,570.398804 217.672134,574.680115 
	C215.353226,575.762329 212.479660,575.656189 209.860962,576.096130 
	C210.301117,573.443359 210.636871,570.766846 211.231216,568.149048 
	C211.479614,567.054993 212.237335,566.061829 212.831451,565.063232 
	C219.334274,554.132935 229.136856,546.936646 239.787735,540.429810 
	C253.256134,532.201660 266.636139,523.764160 279.503479,514.640198 
	C287.608856,508.892853 292.871185,500.658203 292.947876,490.157654 
	C292.993500,483.909637 288.692200,481.514160 283.268738,484.542847 
	C281.384521,485.595032 279.666046,486.939514 277.828979,488.081421 
	C268.998047,493.570557 259.385803,496.581757 248.978088,496.335052 
	C244.010117,496.217224 239.053711,495.299896 234.110748,494.610718 
	C232.414597,494.374268 230.775253,493.730408 229.109940,493.272705 
	C229.693100,491.440552 229.725876,489.008850 230.955078,487.880432 
	C236.177322,483.086456 241.393906,478.123688 247.303802,474.287445 
	C253.116257,470.514496 259.832489,468.160461 266.028595,464.945648 
	C275.421295,460.072327 282.395233,452.849762 285.417969,442.563171 
	C286.277649,439.637604 285.456146,436.218018 285.405579,433.024963 
	C282.366364,433.811371 279.297882,434.503571 276.303619,435.434570 
	C275.236359,435.766388 274.319702,436.637390 273.384460,437.330017 
	C266.732330,442.256836 259.084656,444.969482 251.002823,444.757599 
	C233.132065,444.288971 217.720810,448.560883 206.832108,463.960571 
	C205.773270,465.458099 203.237411,465.911285 201.387177,466.849213 
	C200.574707,464.796875 198.898346,462.656952 199.095978,460.707001 
	C200.067017,451.126740 201.190598,441.534546 202.902435,432.062622 
	C206.247513,413.553497 215.582520,399.098450 232.363403,389.743134 
	C240.057159,385.453827 247.391190,380.518158 254.877548,375.858276 
	C265.491577,369.251495 274.257874,360.681976 281.432587,350.494354 
	C285.348145,344.934540 288.166626,338.858459 286.977142,331.848450 
	C286.559540,329.387573 284.942627,327.130188 283.873352,324.779907 
	C281.740967,325.787811 279.123840,326.311096 277.553894,327.881348 
	C266.420776,339.016663 252.157349,340.637756 237.772614,340.191162 
	C228.826035,339.913422 220.327728,339.295471 212.021011,343.537384 
	C207.403488,345.895325 202.971207,342.253815 204.197525,337.131714 
	C204.934967,334.051544 206.599030,330.686218 208.886765,328.577393 
	C216.335999,321.710724 223.639526,314.373993 232.132599,309.014282 
	C252.074722,296.429382 272.750061,285.011749 292.940399,272.810150 
	C296.820770,270.465118 300.385742,267.110901 303.138184,263.493286 
	C308.097046,256.975677 304.711182,250.350220 296.497772,250.093918 
	C293.778687,250.009064 290.816467,250.656830 288.318848,251.765701 
	C278.016266,256.339722 267.344208,254.463608 256.780182,253.832184 
	C252.723389,253.589706 251.576553,250.939804 254.507065,248.180969 
	C259.646027,243.343063 265.171783,238.738998 271.146576,235.018158 
	C276.600067,231.621948 282.906830,229.617447 288.757385,226.831329 
	C294.584473,224.056412 298.147583,219.446838 298.792053,212.933487 
	C299.369507,207.097397 296.882904,204.563934 291.136261,204.772095 
	C287.140869,204.916824 283.138702,205.275864 279.151855,205.149872 
	C274.384369,204.999222 273.193024,202.814743 275.717560,198.701569 
	C277.352448,196.037933 279.465118,193.609772 281.647736,191.350449 
	C289.672119,183.043900 299.307678,177.448181 310.313904,173.853622 
	C312.835175,173.030197 314.590851,169.862625 316.698883,167.773911 
	C314.381409,166.430542 312.208252,164.437866 309.715332,163.883789 
	C305.040283,162.844696 300.118347,162.944565 295.415100,161.995636 
	C291.049469,161.114807 290.230438,158.338943 293.443787,155.317780 
	C296.698029,152.258194 300.542603,149.835831 304.032654,147.015564 
	C309.715790,142.423096 315.617950,138.042084 320.861511,132.984818 
	C324.807007,129.179474 324.198853,126.607178 319.956787,122.987671 
	C316.920654,120.397118 313.645782,118.034592 310.909027,115.159492 
	C308.165283,112.277069 308.881531,109.883995 312.599976,109.824059 
	C320.926758,109.689842 324.336060,104.490219 326.250916,97.641479 
	C328.621857,89.161667 330.631744,80.581451 332.916473,72.076538 
	C333.358063,70.432648 334.346924,68.935776 335.083344,67.371086 
	C338.114471,75.668976 339.783569,83.590988 341.737549,91.442101 
	C343.491211,98.488281 346.521423,104.176811 355.285736,104.164192 
	C358.959229,104.158905 359.677551,106.581116 357.181366,109.537010 
	C355.468536,111.565300 353.393921,113.283829 351.541199,115.199028 
	C346.465057,120.446396 347.617981,125.770920 354.522278,128.250504 
	C356.994873,129.138519 359.684784,129.468231 362.300690,129.900665 
	C367.623383,130.780594 368.532043,132.987167 365.014282,137.198669 
	C363.424561,139.101913 361.542175,140.796204 359.626984,142.385757 
	C352.311951,148.456970 351.910675,151.619476 358.606232,158.460785 
	C362.191681,162.124313 366.466522,165.114868 370.444824,168.391418 
	C372.754608,170.293747 375.289001,171.967361 377.380768,174.081802 
	C382.765778,179.525208 382.227966,182.780136 375.633820,186.366577 
	C374.465515,187.001984 373.117432,187.454880 372.183380,188.341003 
	C370.429138,190.005310 368.916565,191.924347 367.303497,193.737457 
	C369.106567,195.267960 370.731079,197.105438 372.743469,198.276154 
	C381.758911,203.521011 390.029907,209.630814 395.916321,218.383804 
	C398.899994,222.820496 397.608795,225.294205 392.327179,225.512634 
	C388.519867,225.670090 384.687134,225.091049 380.861664,224.958420 
	C375.026855,224.756195 372.629456,227.190720 373.157745,233.055405 
	C373.764801,239.794586 377.485779,244.407104 383.557526,247.202774 
	C391.407959,250.817429 399.471497,254.037720 407.047668,258.155731 
	C412.233551,260.974487 417.277008,264.506897 421.415955,268.680389 
	C426.091888,273.395355 424.001068,278.880737 417.397491,279.781921 
	C413.036377,280.377045 408.407745,280.050720 404.037506,279.314270 
	C396.024780,277.964020 388.171448,277.550720 380.361572,280.216309 
	C375.223511,281.969971 374.079620,285.532745 378.376648,288.834534 
	C382.644104,292.113586 387.576721,295.001465 392.674561,296.634552 
	C406.840424,301.172638 419.242432,308.702209 431.292847,317.132782 
	C433.782837,318.874756 437.261902,320.048401 440.287842,320.054138 
	C502.617462,320.172424 564.947510,320.083405 627.277466,320.035736 
	C628.894653,320.034485 630.511902,320.035583 632.332397,320.035583 
	C632.439758,318.589569 632.574951,317.619537 632.574829,316.649506 
	C632.566650,265.651764 632.589111,214.653839 632.388672,163.656815 
	C632.379822,161.395676 630.838501,158.624268 629.152161,156.961792 
	C590.581726,118.938454 551.919739,81.007698 513.133240,43.204922 
	C511.367828,41.484241 508.279633,40.254677 505.805664,40.251530 
	C392.977448,40.107887 280.149017,40.105389 167.320847,40.260933 
	C164.715302,40.264523 161.485794,41.616451 159.604156,43.433720 
	C137.787994,64.503548 116.175697,85.784462 94.005623,107.505653 
M562.305725,464.196686 
	C552.018799,453.743835 541.817505,443.203857 531.356812,432.927856 
	C529.700012,431.300262 526.883362,430.032104 524.586792,430.005890 
	C504.757141,429.779236 484.923798,429.871796 465.091583,429.884491 
	C463.873383,429.885254 462.655212,430.015503 460.998199,430.110687 
	C467.562073,441.925201 469.873810,454.337341 471.816986,466.832092 
	C472.962921,474.200531 469.708282,477.381226 462.437347,475.724152 
	C458.932556,474.925385 455.643372,473.142303 452.291290,471.722961 
	C449.087189,470.366272 445.996643,468.716095 442.736267,467.522461 
	C433.379395,464.096954 423.933319,460.914886 414.579163,457.482239 
	C409.277618,455.536804 404.088776,453.284454 398.847015,451.175659 
	C394.381439,449.379211 390.314758,450.048309 386.859100,453.402222 
	C383.376038,456.782806 385.120056,460.449860 386.573608,464.023651 
	C390.646545,474.037689 397.666077,481.273712 407.350891,485.986115 
	C413.478943,488.967896 420.040955,491.313080 425.623016,495.101013 
	C433.676147,500.565826 441.169617,506.905060 448.524689,513.304688 
	C449.905457,514.506104 449.518555,517.739197 449.947357,520.034729 
	C447.502045,520.474304 444.714783,521.887329 442.675537,521.171021 
	C436.566620,519.025146 430.630981,519.067505 424.525024,520.615479 
	C415.315277,522.950439 406.413116,522.223267 397.737854,518.194397 
	C393.980499,516.449402 390.081146,514.936157 386.118530,513.741333 
	C384.396393,513.222107 382.352234,513.770813 380.454346,513.834473 
	C380.582031,515.881348 379.986938,518.406555 380.967957,519.888611 
	C384.418732,525.101868 387.544189,531.119080 392.369385,534.717529 
	C404.206482,543.545105 416.314362,552.391235 429.421753,559.047180 
	C450.722931,569.863831 463.534912,586.615601 469.643036,609.090210 
	C470.546112,612.413086 470.027771,616.122314 470.167053,619.652771 
	C466.716553,618.422302 463.264557,617.195862 459.815887,615.960205 
	C455.224884,614.315125 450.619720,611.228943 446.050018,611.282166 
	C432.276520,611.442810 419.963806,609.098755 410.393066,598.110413 
	C407.697662,595.015747 404.697357,596.076355 404.093872,600.179443 
	C402.297882,612.389587 404.070374,621.697388 417.059265,627.051331 
	C428.107635,631.605469 438.902435,636.798828 449.681335,641.976013 
	C461.702698,647.749939 469.642334,657.175476 473.739502,669.897034 
	C475.730591,676.079407 475.170685,677.409119 468.833618,676.852661 
	C460.741974,676.142212 452.515045,675.369385 444.730194,673.228210 
	C437.287811,671.181213 430.218689,667.592590 423.206757,664.221436 
	C417.192627,661.329956 410.104034,661.869263 406.173767,666.241577 
	C402.723969,670.079346 403.054871,673.920410 407.798645,680.615417 
	C416.533875,692.943542 428.929016,698.817993 443.550446,701.088257 
	C449.241180,701.971985 454.992554,703.410522 460.293488,705.613708 
	C466.554443,708.215942 468.189575,713.508667 465.193542,719.639160 
	C463.684906,722.726135 461.527954,725.581848 459.265839,728.197754 
	C454.069305,734.207092 453.721069,739.562744 459.059265,745.497375 
	C461.113678,747.781372 463.878204,749.533997 466.556519,751.130554 
	C477.393982,757.590393 488.160065,764.390625 492.972260,776.686340 
	C497.442444,788.107971 500.978973,799.925110 504.336578,811.735901 
	C505.525024,815.916382 505.395813,820.621277 505.087555,825.032227 
	C504.819580,828.867065 501.862213,830.623840 498.237915,829.311279 
	C494.055542,827.796570 489.901550,825.946289 486.128662,823.607178 
	C475.666443,817.120667 465.534637,810.098755 455.038361,803.670410 
	C441.634369,795.461243 427.333130,791.243164 411.263794,793.597656 
	C397.717529,795.582458 384.697235,794.118347 373.721100,784.364929 
	C371.912476,782.757874 367.979218,781.596069 366.154907,782.500916 
	C364.336884,783.402649 363.060577,787.157959 363.047607,789.669922 
	C362.887634,820.666321 362.451752,851.677612 363.213135,882.657410 
	C363.879211,909.760742 374.906830,931.338379 399.749542,944.858643 
	C406.490021,948.527161 413.019684,953.591003 417.902740,959.463928 
	C429.712708,973.667847 445.314423,980.857605 462.560242,983.677429 
	C476.732361,985.994629 491.400604,985.411133 505.857361,985.723511 
	C508.298859,985.776245 511.389648,984.476746 513.158325,982.753113 
	C551.946716,944.953247 590.622070,907.036926 629.164917,868.986755 
	C631.011475,867.163940 632.393127,863.909363 632.396973,861.319214 
	C632.556885,754.325439 632.556702,647.331360 632.399963,540.337585 
	C632.396118,537.725220 631.049866,534.483276 629.228088,532.601257 
	C607.206482,509.850555 584.977356,487.300720 562.305725,464.196686 
M209.411972,728.935547 
	C212.080109,727.501465 214.748245,726.067383 217.416382,724.633301 
	C217.287582,724.307495 217.158798,723.981689 217.030014,723.655884 
	C158.355179,723.655884 99.680344,723.655884 40.724194,723.655884 
	C40.619137,724.838867 40.460033,725.799866 40.459026,726.760986 
	C40.411610,771.915527 40.342949,817.070068 40.458515,862.224243 
	C40.463638,864.227051 41.680241,866.714355 43.141823,868.154785 
	C82.064552,906.515686 121.071846,944.791077 160.185562,982.957153 
	C161.745758,984.479614 164.472549,985.492920 166.684204,985.545288 
	C177.675079,985.805481 188.677032,985.781860 199.672180,985.636719 
	C217.208023,985.405334 232.200211,979.042664 243.926407,965.939514 
	C248.785004,960.510498 253.332306,954.633179 257.038452,948.377502 
	C265.109406,934.754639 274.976532,922.778076 286.975128,912.495422 
	C289.249695,910.546082 291.273193,908.303345 293.552551,906.360168 
	C299.768707,901.060791 303.375610,894.249207 305.027557,886.398682 
	C306.190216,880.873535 307.682770,875.274048 307.767487,869.688660 
	C308.383820,829.047729 308.704163,788.402100 309.041046,747.757385 
	C309.074585,743.706360 306.741852,742.215393 303.180084,744.516785 
	C298.755768,747.375610 294.602570,750.831665 290.898651,754.588196 
	C284.472656,761.105652 276.914856,765.297424 268.025665,766.990295 
	C262.810242,767.983582 257.506561,768.756531 252.211349,769.034790 
	C242.485443,769.545837 233.038528,770.949951 224.167755,775.234436 
	C207.793549,783.143066 191.658600,791.337463 179.300568,805.303833 
	C175.338562,809.781494 170.374069,808.727234 168.569946,803.034912 
	C167.550842,799.819458 166.908142,795.950928 167.713226,792.788330 
	C170.451782,782.030273 173.826874,771.429565 177.118408,760.818298 
	C179.821503,752.104004 185.131271,745.084961 192.396759,739.733765 
	C197.601364,735.900452 203.259247,732.682678 209.411972,728.935547 
z"/>
<path fill="#000000" opacity="1.000000" stroke="none" 
	d="
M404.662659,368.390381 
	C404.182251,368.203400 403.844940,367.864471 403.507629,367.525574 
	C403.939575,367.509186 404.371521,367.492798 404.935974,367.695251 
	C405.068481,367.914124 404.805695,368.238434 404.662659,368.390381 
z"/>
<path fill="#8C1616" opacity="1.000000" stroke="none" 
	d="
M94.257477,107.257523 
	C116.175697,85.784462 137.787994,64.503548 159.604156,43.433720 
	C161.485794,41.616451 164.715302,40.264523 167.320847,40.260933 
	C280.149017,40.105389 392.977448,40.107887 505.805664,40.251530 
	C508.279633,40.254677 511.367828,41.484241 513.133240,43.204922 
	C551.919739,81.007698 590.581726,118.938454 629.152161,156.961792 
	C630.838501,158.624268 632.379822,161.395676 632.388672,163.656815 
	C632.589111,214.653839 632.566650,265.651764 632.574829,316.649506 
	C632.574951,317.619537 632.439758,318.589569 632.332397,320.035583 
	C630.511902,320.035583 628.894653,320.034485 627.277466,320.035736 
	C564.947510,320.083405 502.617462,320.172424 440.287842,320.054138 
	C437.261902,320.048401 433.782837,318.874756 431.292847,317.132782 
	C419.242432,308.702209 406.840424,301.172638 392.674561,296.634552 
	C387.576721,295.001465 382.644104,292.113586 378.376648,288.834534 
	C374.079620,285.532745 375.223511,281.969971 380.361572,280.216309 
	C388.171448,277.550720 396.024780,277.964020 404.037506,279.314270 
	C408.407745,280.050720 413.036377,280.377045 417.397491,279.781921 
	C424.001068,278.880737 426.091888,273.395355 421.415955,268.680389 
	C417.277008,264.506897 412.233551,260.974487 407.047668,258.155731 
	C399.471497,254.037720 391.407959,250.817429 383.557526,247.202774 
	C377.485779,244.407104 373.764801,239.794586 373.157745,233.055405 
	C372.629456,227.190720 375.026855,224.756195 380.861664,224.958420 
	C384.687134,225.091049 388.519867,225.670090 392.327179,225.512634 
	C397.608795,225.294205 398.899994,222.820496 395.916321,218.383804 
	C390.029907,209.630814 381.758911,203.521011 372.743469,198.276154 
	C370.731079,197.105438 369.106567,195.267960 367.303497,193.737457 
	C368.916565,191.924347 370.429138,190.005310 372.183380,188.341003 
	C373.117432,187.454880 374.465515,187.001984 375.633820,186.366577 
	C382.227966,182.780136 382.765778,179.525208 377.380768,174.081802 
	C375.289001,171.967361 372.754608,170.293747 370.444824,168.391418 
	C366.466522,165.114868 362.191681,162.124313 358.606232,158.460785 
	C351.910675,151.619476 352.311951,148.456970 359.626984,142.385757 
	C361.542175,140.796204 363.424561,139.101913 365.014282,137.198669 
	C368.532043,132.987167 367.623383,130.780594 362.300690,129.900665 
	C359.684784,129.468231 356.994873,129.138519 354.522278,128.250504 
	C347.617981,125.770920 346.465057,120.446396 351.541199,115.199028 
	C353.393921,113.283829 355.468536,111.565300 357.181366,109.537010 
	C359.677551,106.581116 358.959229,104.158905 355.285736,104.164192 
	C346.521423,104.176811 343.491211,98.488281 341.737549,91.442101 
	C339.783569,83.590988 338.114471,75.668976 335.083344,67.371086 
	C334.346924,68.935776 333.358063,70.432648 332.916473,72.076538 
	C330.631744,80.581451 328.621857,89.161667 326.250916,97.641479 
	C324.336060,104.490219 320.926758,109.689842 312.599976,109.824059 
	C308.881531,109.883995 308.165283,112.277069 310.909027,115.159492 
	C313.645782,118.034592 316.920654,120.397118 319.956787,122.987671 
	C324.198853,126.607178 324.807007,129.179474 320.861511,132.984818 
	C315.617950,138.042084 309.715790,142.423096 304.032654,147.015564 
	C300.542603,149.835831 296.698029,152.258194 293.443787,155.317780 
	C290.230438,158.338943 291.049469,161.114807 295.415100,161.995636 
	C300.118347,162.944565 305.040283,162.844696 309.715332,163.883789 
	C312.208252,164.437866 314.381409,166.430542 316.698883,167.773895 
	C314.590851,169.862625 312.835175,173.030197 310.313904,173.853622 
	C299.307678,177.448181 289.672119,183.043900 281.647736,191.350449 
	C279.465118,193.609772 277.352448,196.037933 275.717560,198.701569 
	C273.193024,202.814743 274.384369,204.999222 279.151855,205.149872 
	C283.138702,205.275864 287.140869,204.916824 291.136261,204.772095 
	C296.882904,204.563934 299.369507,207.097397 298.792053,212.933487 
	C298.147583,219.446838 294.584473,224.056412 288.757385,226.831329 
	C282.906830,229.617447 276.600067,231.621948 271.146576,235.018158 
	C265.171783,238.738998 259.646027,243.343063 254.507065,248.180969 
	C251.576553,250.939804 252.723389,253.589706 256.780182,253.832184 
	C267.344208,254.463608 278.016266,256.339722 288.318848,251.765701 
	C290.816467,250.656830 293.778687,250.009064 296.497772,250.093918 
	C304.711182,250.350220 308.097046,256.975677 303.138184,263.493286 
	C300.385742,267.110901 296.820770,270.465118 292.940399,272.810150 
	C272.750061,285.011749 252.074722,296.429382 232.132599,309.014282 
	C223.639526,314.373993 216.335999,321.710724 208.886765,328.577393 
	C206.599030,330.686218 204.934967,334.051544 204.197525,337.131714 
	C202.971207,342.253815 207.403488,345.895325 212.021011,343.537384 
	C220.327728,339.295471 228.826035,339.913422 237.772614,340.191162 
	C252.157349,340.637756 266.420776,339.016663 277.553894,327.881348 
	C279.123840,326.311096 281.740967,325.787811 283.873352,324.779907 
	C284.942627,327.130188 286.559540,329.387573 286.977142,331.848450 
	C288.166626,338.858459 285.348145,344.934540 281.432587,350.494354 
	C274.257874,360.681976 265.491577,369.251495 254.877548,375.858276 
	C247.391190,380.518158 240.057159,385.453827 232.363403,389.743134 
	C215.582520,399.098450 206.247513,413.553497 202.902435,432.062622 
	C201.190598,441.534546 200.067017,451.126740 199.095978,460.707001 
	C198.898346,462.656952 200.574707,464.796875 201.387177,466.849243 
	C203.237411,465.911285 205.773270,465.458099 206.832108,463.960571 
	C217.720810,448.560883 233.132065,444.288971 251.002823,444.757599 
	C259.084656,444.969482 266.732330,442.256836 273.384460,437.330017 
	C274.319702,436.637390 275.236359,435.766388 276.303619,435.434570 
	C279.297882,434.503571 282.366364,433.811371 285.405579,433.024963 
	C285.456146,436.218018 286.277649,439.637604 285.417969,442.563171 
	C282.395233,452.849762 275.421295,460.072327 266.028595,464.945648 
	C259.832489,468.160461 253.116257,470.514496 247.303802,474.287445 
	C241.393906,478.123688 236.177322,483.086456 230.955078,487.880432 
	C229.725876,489.008850 229.693100,491.440552 229.109940,493.272705 
	C230.775253,493.730408 232.414597,494.374268 234.110748,494.610718 
	C239.053711,495.299896 244.010117,496.217224 248.978088,496.335052 
	C259.385803,496.581757 268.998047,493.570557 277.828979,488.081421 
	C279.666046,486.939514 281.384521,485.595032 283.268738,484.542847 
	C288.692200,481.514160 292.993500,483.909637 292.947876,490.157654 
	C292.871185,500.658203 287.608856,508.892853 279.503479,514.640198 
	C266.636139,523.764160 253.256134,532.201660 239.787735,540.429810 
	C229.136856,546.936646 219.334274,554.132935 212.831451,565.063232 
	C212.237335,566.061829 211.479614,567.054993 211.231216,568.149048 
	C210.636871,570.766846 210.301117,573.443359 209.860962,576.096191 
	C212.479660,575.656189 215.353226,575.762329 217.672134,574.680115 
	C226.845261,570.398804 235.965286,572.625977 245.116989,574.349670 
	C251.796722,575.607849 258.379059,577.655396 265.292908,575.232361 
	C266.056366,574.964783 268.703766,577.071045 268.700714,578.070923 
	C268.658813,591.816772 268.879547,601.336853 253.807617,607.308411 
	C245.910675,610.437195 238.251099,612.225708 229.730347,612.121216 
	C202.735580,611.790466 175.733566,612.078674 148.736481,611.863647 
	C146.300003,611.844238 143.259811,610.535095 141.541855,608.795776 
	C108.634407,575.478821 75.853455,542.036438 43.188606,508.481537 
	C41.577564,506.826630 40.460140,503.912079 40.457413,501.582489 
	C40.325699,389.087585 40.324684,276.592438 40.464855,164.097565 
	C40.467724,161.794739 41.730881,158.918976 43.373814,157.281387 
	C60.135868,140.573883 77.098846,124.067963 94.257477,107.257523 
z"/>
<path fill="#8C1616" opacity="1.000000" stroke="none" 
	d="
M562.553955,464.447632 
	C584.977356,487.300720 607.206482,509.850555 629.228088,532.601257 
	C631.049866,534.483276 632.396118,537.725220 632.399963,540.337585 
	C632.556702,647.331360 632.556885,754.325439 632.396973,861.319214 
	C632.393127,863.909363 631.011475,867.163940 629.164917,868.986755 
	C590.622070,907.036926 551.946716,944.953247 513.158325,982.753113 
	C511.389648,984.476746 508.298859,985.776245 505.857361,985.723511 
	C491.400604,985.411133 476.732361,985.994629 462.560242,983.677429 
	C445.314423,980.857605 429.712708,973.667847 417.902740,959.463928 
	C413.019684,953.591003 406.490021,948.527161 399.749542,944.858643 
	C374.906830,931.338379 363.879211,909.760742 363.213135,882.657410 
	C362.451752,851.677612 362.887634,820.666321 363.047607,789.669922 
	C363.060577,787.157959 364.336884,783.402649 366.154907,782.500916 
	C367.979218,781.596069 371.912476,782.757874 373.721100,784.364929 
	C384.697235,794.118347 397.717529,795.582458 411.263794,793.597656 
	C427.333130,791.243164 441.634369,795.461243 455.038361,803.670410 
	C465.534637,810.098755 475.666443,817.120667 486.128662,823.607178 
	C489.901550,825.946289 494.055542,827.796570 498.237915,829.311279 
	C501.862213,830.623840 504.819580,828.867065 505.087555,825.032227 
	C505.395813,820.621277 505.525024,815.916382 504.336578,811.735901 
	C500.978973,799.925110 497.442444,788.107971 492.972260,776.686340 
	C488.160065,764.390625 477.393982,757.590393 466.556519,751.130554 
	C463.878204,749.533997 461.113678,747.781372 459.059265,745.497375 
	C453.721069,739.562744 454.069305,734.207092 459.265839,728.197754 
	C461.527954,725.581848 463.684906,722.726135 465.193542,719.639160 
	C468.189575,713.508667 466.554443,708.215942 460.293488,705.613708 
	C454.992554,703.410522 449.241180,701.971985 443.550446,701.088257 
	C428.929016,698.817993 416.533875,692.943542 407.798645,680.615417 
	C403.054871,673.920410 402.723969,670.079346 406.173767,666.241577 
	C410.104034,661.869263 417.192627,661.329956 423.206757,664.221436 
	C430.218689,667.592590 437.287811,671.181213 444.730194,673.228210 
	C452.515045,675.369385 460.741974,676.142212 468.833618,676.852661 
	C475.170685,677.409119 475.730591,676.079407 473.739502,669.897034 
	C469.642334,657.175476 461.702698,647.749939 449.681335,641.976013 
	C438.902435,636.798828 428.107635,631.605469 417.059265,627.051331 
	C404.070374,621.697388 402.297882,612.389587 404.093872,600.179443 
	C404.697357,596.076355 407.697662,595.015747 410.393066,598.110413 
	C419.963806,609.098755 432.276520,611.442810 446.050018,611.282166 
	C450.619720,611.228943 455.224884,614.315125 459.815887,615.960205 
	C463.264557,617.195862 466.716553,618.422302 470.167053,619.652771 
	C470.027771,616.122314 470.546112,612.413086 469.643036,609.090210 
	C463.534912,586.615601 450.722931,569.863831 429.421753,559.047180 
	C416.314362,552.391235 404.206482,543.545105 392.369385,534.717529 
	C387.544189,531.119080 384.418732,525.101868 380.967957,519.888611 
	C379.986938,518.406555 380.582031,515.881348 380.454346,513.834473 
	C382.352234,513.770813 384.396393,513.222107 386.118530,513.741333 
	C390.081146,514.936157 393.980499,516.449402 397.737854,518.194397 
	C406.413116,522.223267 415.315277,522.950439 424.525024,520.615479 
	C430.630981,519.067505 436.566620,519.025146 442.675537,521.171021 
	C444.714783,521.887329 447.502045,520.474304 449.947357,520.034729 
	C449.518555,517.739197 449.905457,514.506104 448.524689,513.304688 
	C441.169617,506.905060 433.676147,500.565826 425.623016,495.101013 
	C420.040955,491.313080 413.478943,488.967896 407.350891,485.986115 
	C397.666077,481.273712 390.646545,474.037689 386.573608,464.023651 
	C385.120056,460.449860 383.376038,456.782806 386.859100,453.402222 
	C390.314758,450.048309 394.381439,449.379211 398.847015,451.175659 
	C404.088776,453.284454 409.277618,455.536804 414.579163,457.482239 
	C423.933319,460.914886 433.379395,464.096954 442.736267,467.522461 
	C445.996643,468.716095 449.087189,470.366272 452.291290,471.722961 
	C455.643372,473.142303 458.932556,474.925385 462.437347,475.724152 
	C469.708282,477.381226 472.962921,474.200531 471.816986,466.832092 
	C469.873810,454.337341 467.562073,441.925201 460.998199,430.110687 
	C462.655212,430.015503 463.873383,429.885254 465.091583,429.884491 
	C484.923798,429.871796 504.757141,429.779236 524.586792,430.005890 
	C526.883362,430.032104 529.700012,431.300262 531.356812,432.927856 
	C541.817505,443.203857 552.018799,453.743835 562.553955,464.447632 
z"/>
<path fill="#8C1616" opacity="1.000000" stroke="none" 
	d="
M209.063446,729.062866 
	C203.259247,732.682678 197.601364,735.900452 192.396759,739.733765 
	C185.131271,745.084961 179.821503,752.104004 177.118408,760.818298 
	C173.826874,771.429565 170.451782,782.030273 167.713226,792.788330 
	C166.908142,795.950928 167.550842,799.819458 168.569946,803.034912 
	C170.374069,808.727234 175.338562,809.781494 179.300568,805.303833 
	C191.658600,791.337463 207.793549,783.143066 224.167755,775.234436 
	C233.038528,770.949951 242.485443,769.545837 252.211349,769.034790 
	C257.506561,768.756531 262.810242,767.983582 268.025665,766.990295 
	C276.914856,765.297424 284.472656,761.105652 290.898651,754.588196 
	C294.602570,750.831665 298.755768,747.375610 303.180084,744.516785 
	C306.741852,742.215393 309.074585,743.706360 309.041046,747.757385 
	C308.704163,788.402100 308.383820,829.047729 307.767487,869.688660 
	C307.682770,875.274048 306.190216,880.873535 305.027557,886.398682 
	C303.375610,894.249207 299.768707,901.060791 293.552551,906.360168 
	C291.273193,908.303345 289.249695,910.546082 286.975128,912.495422 
	C274.976532,922.778076 265.109406,934.754639 257.038452,948.377502 
	C253.332306,954.633179 248.785004,960.510498 243.926407,965.939514 
	C232.200211,979.042664 217.208023,985.405334 199.672180,985.636719 
	C188.677032,985.781860 177.675079,985.805481 166.684204,985.545288 
	C164.472549,985.492920 161.745758,984.479614 160.185562,982.957153 
	C121.071846,944.791077 82.064552,906.515686 43.141823,868.154785 
	C41.680241,866.714355 40.463638,864.227051 40.458515,862.224243 
	C40.342949,817.070068 40.411610,771.915527 40.459026,726.760986 
	C40.460033,725.799866 40.619137,724.838867 40.724194,723.655884 
	C99.680344,723.655884 158.355179,723.655884 217.030014,723.655884 
	C217.158798,723.981689 217.287582,724.307495 217.416382,724.633301 
	C214.748245,726.067383 212.080109,727.501465 209.063446,729.062866 
z"/>
</svg>