<svg version="1.1" id="Layer_1" xmlns="http://www.w3.org/2000/svg" xmlns:xlink="http://www.w3.org/1999/xlink" x="0px" y="0px"
	 width="100%" viewBox="0 0 2560 1729" enable-background="new 0 0 2560 1729" xml:space="preserve">
<path fill="#4B2E83" opacity="1.000000" stroke="currentColor" 
	d="
M2562.000000,126.000000 
	C2562.000000,183.375122 2562.000000,240.750244 2561.182617,298.927277 
	C2559.669678,300.547760 2558.973877,301.366364 2558.122070,302.800690 
	C2558.002686,305.552734 2558.039551,307.689056 2558.064941,310.414734 
	C2558.061279,311.395172 2558.068604,311.786224 2558.000977,312.783630 
	C2557.976074,314.201508 2558.026367,315.013092 2558.029297,316.514130 
	C2557.867920,318.114471 2557.753662,319.025330 2556.724854,319.950775 
	C2495.710938,319.978088 2435.611572,319.950928 2375.512695,320.073730 
	C2370.276611,320.084412 2365.042480,321.081940 2359.252930,322.159332 
	C2358.208984,324.966919 2357.803955,327.258209 2357.217773,329.502228 
	C2343.854004,380.677704 2330.538086,431.865753 2317.073975,483.014893 
	C2299.542480,549.618042 2281.830811,616.173828 2264.305908,682.778748 
	C2244.833740,756.784851 2225.514893,830.831238 2206.072021,904.845093 
	C2188.579590,971.433716 2170.998047,1037.999023 2153.477539,1104.580200 
	C2135.784912,1171.815552 2118.135742,1239.062134 2100.437012,1306.295898 
	C2084.344971,1367.427246 2068.197021,1428.543823 2052.100342,1489.674072 
	C2035.917236,1551.133179 2019.725098,1612.589844 2003.631714,1674.072388 
	C1999.508789,1689.823364 1995.743774,1705.668213 1990.900879,1721.612793 
	C1986.657227,1721.837280 1983.326782,1721.989990 1979.996460,1721.990234 
	C1825.008911,1722.001953 1670.021362,1722.002563 1515.033813,1721.987793 
	C1511.370728,1721.987427 1507.707764,1721.798462 1503.920410,1720.950439 
	C1449.843384,1504.400024 1395.889771,1288.596558 1341.938354,1072.792603 
	C1323.927490,1000.750122 1305.931885,928.703857 1287.882080,856.671082 
	C1287.159302,853.786377 1285.950562,851.023438 1284.968262,848.203796 
	C1281.977783,852.445923 1280.818115,856.229309 1279.815430,860.053772 
	C1275.510986,876.473877 1271.297974,892.917847 1266.969482,909.331543 
	C1249.402710,975.946472 1231.762451,1042.541992 1214.232666,1109.166626 
	C1198.480347,1169.035645 1182.893921,1228.948486 1167.131226,1288.814819 
	C1149.589600,1355.437378 1131.895996,1422.019775 1114.334473,1488.637085 
	C1098.045044,1550.428955 1081.800781,1612.232788 1065.630371,1674.055908 
	C1061.509033,1689.812744 1057.743408,1705.662720 1052.900879,1721.612793 
	C1048.657227,1721.837280 1045.327026,1721.989868 1041.996704,1721.990234 
	C887.012390,1722.001953 732.028137,1722.002197 577.043823,1721.988770 
	C573.380371,1721.988403 569.716858,1721.814453 565.924072,1720.973633 
	C536.246826,1602.008545 506.706940,1483.789062 477.149323,1365.573975 
	C399.459656,1054.855835 321.771240,744.137390 244.056107,433.425629 
	C234.766632,396.285492 225.315521,359.185822 215.244568,321.617004 
	C209.269211,320.778625 203.989212,320.061920 198.707977,320.052979 
	C137.831024,319.949707 76.953873,319.953705 15.944723,319.004333 
	C15.767125,316.418549 15.681869,314.757629 15.681720,313.096710 
	C15.673078,216.378662 15.667553,119.660629 15.687599,22.942587 
	C15.688217,19.959406 15.961195,16.976284 17.037500,13.994790 
	C169.615601,13.997474 321.263397,13.989429 472.911194,14.002104 
	C621.892578,14.014556 770.874023,14.048052 920.241882,14.120302 
	C920.628357,14.168291 921.406616,14.201482 921.489441,15.122787 
	C921.596619,115.582283 921.622192,215.120468 921.633911,314.658661 
	C921.634094,316.319580 921.464905,317.980499 920.481445,319.694153 
	C914.604309,319.831390 909.620422,319.988159 904.636536,319.989502 
	C840.488037,320.006958 776.339355,319.950226 712.191223,320.101166 
	C707.029846,320.113312 701.871704,321.515198 696.647461,323.020630 
	C714.033325,394.481506 731.444580,465.202698 748.946289,535.901550 
	C763.971191,596.594849 779.190796,657.240173 794.149170,717.949829 
	C803.776367,757.022766 812.953308,796.206726 822.578125,835.280212 
	C831.702576,872.322449 841.251404,909.260010 850.419250,946.291748 
	C857.851685,976.313599 864.848877,1006.443237 872.305054,1036.459106 
	C881.345276,1072.851685 890.684570,1109.170044 899.855957,1145.530151 
	C904.657593,1164.566284 909.363647,1183.626343 914.144897,1202.667603 
	C915.063232,1206.324707 916.131165,1209.944092 917.130066,1213.580933 
	C917.821899,1213.517944 918.513794,1213.454956 919.205627,1213.391968 
	C920.263855,1210.006836 921.424377,1206.649902 922.361633,1203.231567 
	C925.440918,1192.001587 928.449097,1180.751953 931.467102,1169.505249 
	C954.305359,1084.397217 977.116333,999.281982 999.982849,914.181641 
	C1015.181763,857.617065 1030.498047,801.084106 1045.690674,744.517944 
	C1069.081787,657.426819 1092.384766,570.312134 1115.775879,483.221039 
	C1135.697876,409.045990 1155.730103,334.900604 1175.640015,260.722321 
	C1190.736938,204.475876 1205.650635,148.180176 1220.780884,91.942726 
	C1227.781006,65.924126 1235.102905,39.992085 1243.198242,14.019360 
	C1348.101318,14.028111 1452.085083,14.038301 1556.447021,14.701600 
	C1568.019409,60.258514 1579.225098,105.159462 1590.404785,150.066879 
	C1603.663208,203.323837 1616.905884,256.584747 1630.143433,309.846924 
	C1642.876465,361.078613 1655.589966,412.315186 1668.319580,463.547729 
	C1681.553589,516.810425 1694.809326,570.067688 1708.032227,623.333191 
	C1720.221436,672.434448 1732.353882,721.549805 1744.558105,770.647339 
	C1760.374390,834.277161 1776.212158,897.901672 1792.086182,961.517090 
	C1812.555786,1043.549805 1833.065674,1125.572510 1853.594604,1207.590332 
	C1854.098145,1209.601929 1855.030151,1211.506104 1856.431030,1215.244995 
	C1857.932861,1210.842407 1858.914917,1208.425659 1859.584595,1205.925171 
	C1863.373901,1191.778198 1867.030273,1177.595825 1870.837158,1163.453613 
	C1893.141724,1080.596680 1915.485474,997.750305 1937.795288,914.894714 
	C1949.806885,870.285706 1961.771362,825.663940 1973.768799,781.051147 
	C1986.990845,731.884338 2000.238647,682.724487 2013.452637,633.555542 
	C2031.505859,566.379883 2049.558350,499.204163 2067.570312,432.017426 
	C2077.221680,396.016479 2086.786865,359.992401 2096.354980,323.393616 
	C2093.181641,318.337128 2088.439697,320.101410 2084.406738,320.089600 
	C2036.786743,319.950195 1989.166260,320.030579 1941.545898,319.979767 
	C1921.234741,319.958099 1900.923706,319.764984 1880.517334,318.738922 
	C1880.396606,217.944061 1880.370361,118.060043 1880.355713,18.176037 
	C1880.355469,16.847067 1880.498657,15.518077 1880.963135,14.172329 
	C1881.351318,14.155561 1882.123901,14.065630 1883.053467,14.056484 
	C2108.620117,14.028593 2333.257324,14.009846 2558.226074,14.661169 
	C2559.705322,15.554162 2560.852783,15.777086 2562.000000,16.000004 
	C2562.000000,21.400026 2562.000000,26.800055 2561.257080,32.879074 
	C2557.268555,39.925182 2557.523682,41.718674 2562.000000,44.000000 
	C2562.000000,46.133339 2562.000000,48.266678 2561.285156,50.943100 
	C2557.245117,56.732353 2557.548096,58.537327 2562.000000,60.000000 
	C2562.000000,68.049088 2562.000000,76.098175 2561.315918,84.768448 
	C2557.556396,89.495796 2557.928955,91.296310 2562.000000,92.000000 
	C2562.000000,95.428719 2562.000000,98.857430 2561.186523,103.055870 
	C2556.790039,110.845833 2558.053467,118.090416 2559.519043,125.300980 
	C2559.597168,125.686203 2561.139404,125.773834 2562.000000,126.000000 
z"/>
<path fill="#000000" opacity="1.000000" stroke="none" 
	d="
M1991.814331,1721.469849 
	C1995.743774,1705.668213 1999.508789,1689.823364 2003.631714,1674.072388 
	C2019.725098,1612.589844 2035.917236,1551.133179 2052.100342,1489.674072 
	C2068.197021,1428.543823 2084.344971,1367.427246 2100.437012,1306.295898 
	C2118.135742,1239.062134 2135.784912,1171.815552 2153.477539,1104.580200 
	C2170.998047,1037.999023 2188.579590,971.433716 2206.072021,904.845093 
	C2225.514893,830.831238 2244.833740,756.784851 2264.305908,682.778748 
	C2281.830811,616.173828 2299.542480,549.618042 2317.073975,483.014893 
	C2330.538086,431.865753 2343.854004,380.677704 2357.217773,329.502228 
	C2357.803955,327.258209 2358.208984,324.966919 2360.199951,322.253235 
	C2424.741943,321.864319 2487.782471,321.933929 2550.822754,321.924896 
	C2553.423096,321.924530 2556.023438,321.187500 2558.793701,319.877930 
	C2559.006836,317.724487 2559.050049,316.486786 2559.069092,314.833618 
	C2559.030029,313.862732 2559.048096,313.308411 2559.131592,311.876617 
	C2559.142090,310.412354 2559.120605,309.826660 2559.042969,308.527069 
	C2558.750488,305.937134 2558.514404,304.061066 2558.278320,302.184998 
	C2558.973877,301.366364 2559.669678,300.547760 2561.182617,299.864594 
	C2562.000000,777.276306 2562.000000,1254.552612 2562.000000,1731.914429 
	C1708.825684,1731.914429 855.651367,1731.914429 2.238537,1731.914429 
	C2.238537,1155.561401 2.238537,579.122620 2.238537,2.341911 
	C855.333191,2.341911 1708.666626,2.341911 2562.000000,2.341911 
	C2562.000000,6.009541 2562.000000,10.008961 2562.000000,15.004195 
	C2560.852783,15.777086 2559.705322,15.554162 2557.684326,14.014669 
	C2552.502930,12.465873 2548.195557,12.031119 2543.887939,12.030460 
	C2327.602539,11.997381 2111.317383,11.999377 1895.031982,12.016053 
	C1890.705200,12.016387 1886.378418,12.235376 1881.627563,12.481783 
	C1880.671509,13.008587 1880.461914,13.534547 1880.574951,14.189094 
	C1880.498657,15.518077 1880.355469,16.847067 1880.355713,18.176037 
	C1880.370361,118.060043 1880.396606,217.944061 1881.117920,319.262146 
	C1886.400024,321.128174 1890.985718,321.929932 1895.572632,321.936188 
	C1957.663208,322.020874 2019.754150,321.950958 2081.844482,322.082275 
	C2086.694580,322.092529 2091.542236,323.318085 2096.390869,323.978760 
	C2086.786865,359.992401 2077.221680,396.016479 2067.570312,432.017426 
	C2049.558350,499.204163 2031.505859,566.379883 2013.452637,633.555542 
	C2000.238647,682.724487 1986.990845,731.884338 1973.768799,781.051147 
	C1961.771362,825.663940 1949.806885,870.285706 1937.795288,914.894714 
	C1915.485474,997.750305 1893.141724,1080.596680 1870.837158,1163.453613 
	C1867.030273,1177.595825 1863.373901,1191.778198 1859.584595,1205.925171 
	C1858.914917,1208.425659 1857.932861,1210.842407 1856.431030,1215.244995 
	C1855.030151,1211.506104 1854.098145,1209.601929 1853.594604,1207.590332 
	C1833.065674,1125.572510 1812.555786,1043.549805 1792.086182,961.517090 
	C1776.212158,897.901672 1760.374390,834.277161 1744.558105,770.647339 
	C1732.353882,721.549805 1720.221436,672.434448 1708.032227,623.333191 
	C1694.809326,570.067688 1681.553589,516.810425 1668.319580,463.547729 
	C1655.589966,412.315186 1642.876465,361.078613 1630.143433,309.846924 
	C1616.905884,256.584747 1603.663208,203.323837 1590.404785,150.066879 
	C1579.225098,105.159462 1568.019409,60.258514 1555.898560,14.037514 
	C1553.001587,12.485903 1551.031494,12.047116 1549.061035,12.046391 
	C1449.581055,12.009748 1350.101074,11.994184 1250.621216,12.091660 
	C1247.839722,12.094384 1245.059692,13.349617 1242.278931,14.020803 
	C1235.102905,39.992085 1227.781006,65.924126 1220.780884,91.942726 
	C1205.650635,148.180176 1190.736938,204.475876 1175.640015,260.722321 
	C1155.730103,334.900604 1135.697876,409.045990 1115.775879,483.221039 
	C1092.384766,570.312134 1069.081787,657.426819 1045.690674,744.517944 
	C1030.498047,801.084106 1015.181763,857.617065 999.982849,914.181641 
	C977.116333,999.281982 954.305359,1084.397217 931.467102,1169.505249 
	C928.449097,1180.751953 925.440918,1192.001587 922.361633,1203.231567 
	C921.424377,1206.649902 920.263855,1210.006836 919.205627,1213.391968 
	C918.513794,1213.454956 917.821899,1213.517944 917.130066,1213.580933 
	C916.131165,1209.944092 915.063232,1206.324707 914.144897,1202.667603 
	C909.363647,1183.626343 904.657593,1164.566284 899.855957,1145.530151 
	C890.684570,1109.170044 881.345276,1072.851685 872.305054,1036.459106 
	C864.848877,1006.443237 857.851685,976.313599 850.419250,946.291748 
	C841.251404,909.260010 831.702576,872.322449 822.578125,835.280212 
	C812.953308,796.206726 803.776367,757.022766 794.149170,717.949829 
	C779.190796,657.240173 763.971191,596.594849 748.946289,535.901550 
	C731.444580,465.202698 714.033325,394.481506 697.524719,322.986389 
	C703.454163,322.134613 708.441650,322.008240 713.429199,322.007141 
	C777.950256,321.992981 842.471436,322.046600 906.992126,321.894318 
	C911.788086,321.882965 916.580627,320.426239 921.374756,319.641418 
	C921.464905,317.980499 921.634094,316.319580 921.633911,314.658661 
	C921.622192,215.120468 921.596619,115.582283 921.453125,14.682240 
	C921.067322,12.718894 920.605591,12.397994 919.021545,12.237969 
	C913.096619,12.079253 908.099060,12.006232 903.101562,12.006124 
	C644.863770,12.000585 386.625977,12.001203 128.388168,12.001271 
	C94.733955,12.001280 61.079456,11.939090 27.425915,12.089619 
	C23.650246,12.106507 19.879972,13.329471 16.107197,13.993134 
	C15.961195,16.976284 15.688217,19.959406 15.687599,22.942587 
	C15.667553,119.660629 15.673078,216.378662 15.681720,313.096710 
	C15.681869,314.757629 15.767125,316.418549 16.605539,319.508301 
	C22.350212,321.290466 27.301558,321.944000 32.253887,321.951569 
	C93.482292,322.044861 154.710831,322.043976 215.939346,322.067383 
	C225.315521,359.185822 234.766632,396.285492 244.056107,433.425629 
	C321.771240,744.137390 399.459656,1054.855835 477.149323,1365.573975 
	C506.706940,1483.789062 536.246826,1602.008545 566.682495,1721.295654 
	C573.507507,1722.909912 579.444397,1723.922729 585.382263,1723.928955 
	C680.679321,1724.028442 775.976501,1724.000000 871.273621,1723.999756 
	C926.252747,1723.999634 981.232056,1724.074097 1036.210571,1723.886353 
	C1042.081177,1723.866333 1047.946533,1722.312256 1053.814331,1721.469849 
	C1057.743408,1705.662720 1061.509033,1689.812744 1065.630371,1674.055908 
	C1081.800781,1612.232788 1098.045044,1550.428955 1114.334473,1488.637085 
	C1131.895996,1422.019775 1149.589600,1355.437378 1167.131226,1288.814819 
	C1182.893921,1228.948486 1198.480347,1169.035645 1214.232666,1109.166626 
	C1231.762451,1042.541992 1249.402710,975.946472 1266.969482,909.331543 
	C1271.297974,892.917847 1275.510986,876.473877 1279.815430,860.053772 
	C1280.818115,856.229309 1281.977783,852.445923 1284.968262,848.203796 
	C1285.950562,851.023438 1287.159302,853.786377 1287.882080,856.671082 
	C1305.931885,928.703857 1323.927490,1000.750122 1341.938354,1072.792603 
	C1395.889771,1288.596558 1449.843384,1504.400024 1504.678833,1721.276489 
	C1511.497925,1722.899292 1517.433838,1723.921997 1523.370728,1723.928345 
	C1618.670044,1724.028809 1713.969604,1724.000000 1809.269043,1723.999756 
	C1864.249512,1723.999634 1919.230347,1724.074097 1974.210205,1723.886353 
	C1980.080933,1723.866333 1985.946411,1722.312256 1991.814331,1721.469849 
z"/>
<path fill="#000000" opacity="1.000000" stroke="none" 
	d="
M2562.000000,125.083862 
	C2561.139404,125.773834 2559.597168,125.686203 2559.519043,125.300980 
	C2558.053467,118.090416 2556.790039,110.845833 2561.186523,103.912796 
	C2562.000000,110.722572 2562.000000,117.445152 2562.000000,125.083862 
z"/>
<path fill="#000000" opacity="1.000000" stroke="none" 
	d="
M2562.000000,43.166668 
	C2557.523682,41.718674 2557.268555,39.925182 2561.257080,33.779037 
	C2562.000000,36.777779 2562.000000,39.555557 2562.000000,43.166668 
z"/>
<path fill="#000000" opacity="1.000000" stroke="none" 
	d="
M2562.000000,59.200008 
	C2557.548096,58.537327 2557.245117,56.732353 2561.285156,51.743095 
	C2562.000000,54.133339 2562.000000,56.266678 2562.000000,59.200008 
z"/>
<path fill="#000000" opacity="1.000000" stroke="none" 
	d="
M2562.000000,91.250000 
	C2557.928955,91.296310 2557.556396,89.495796 2561.315918,85.694824 
	C2562.000000,87.500000 2562.000000,89.000000 2562.000000,91.250000 
z"/>
<path fill="#382D83" opacity="1.000000" stroke="none" 
	d="
M17.037500,13.994790 
	C19.879972,13.329471 23.650246,12.106507 27.425915,12.089619 
	C61.079456,11.939090 94.733955,12.001280 128.388168,12.001271 
	C386.625977,12.001203 644.863770,12.000585 903.101562,12.006124 
	C908.099060,12.006232 913.096619,12.079253 919.001404,12.666641 
	C919.908691,13.215028 919.855408,14.072312 919.855408,14.072312 
	C770.874023,14.048052 621.892578,14.014556 472.911194,14.002104 
	C321.263397,13.989429 169.615601,13.997474 17.037500,13.994790 
z"/>
<path fill="#382D83" opacity="1.000000" stroke="none" 
	d="
M1882.051636,12.352354 
	C1886.378418,12.235376 1890.705200,12.016387 1895.031982,12.016053 
	C2111.317383,11.999377 2327.602539,11.997381 2543.887939,12.030460 
	C2548.195557,12.031119 2552.502930,12.465873 2557.352539,13.344600 
	C2333.257324,14.009846 2108.620117,14.028593 1883.030273,13.627634 
	C1882.077393,13.207930 1882.051636,12.352353 1882.051636,12.352354 
z"/>
<path fill="#120000" opacity="1.000000" stroke="none" 
	d="
M1990.900879,1721.612793 
	C1985.946411,1722.312256 1980.080933,1723.866333 1974.210205,1723.886353 
	C1919.230347,1724.074097 1864.249512,1723.999634 1809.269043,1723.999756 
	C1713.969604,1724.000000 1618.670044,1724.028809 1523.370728,1723.928345 
	C1517.433838,1723.921997 1511.497925,1722.899292 1504.803223,1722.023438 
	C1507.707764,1721.798462 1511.370728,1721.987427 1515.033813,1721.987793 
	C1670.021362,1722.002563 1825.008911,1722.001953 1979.996460,1721.990234 
	C1983.326782,1721.989990 1986.657227,1721.837280 1990.900879,1721.612793 
z"/>
<path fill="#120000" opacity="1.000000" stroke="none" 
	d="
M1052.900879,1721.612793 
	C1047.946533,1722.312256 1042.081177,1723.866333 1036.210571,1723.886353 
	C981.232056,1724.074097 926.252747,1723.999634 871.273621,1723.999756 
	C775.976501,1724.000000 680.679321,1724.028442 585.382263,1723.928955 
	C579.444397,1723.922729 573.507507,1722.909912 566.811768,1722.043335 
	C569.716858,1721.814453 573.380371,1721.988403 577.043823,1721.988770 
	C732.028137,1722.002197 887.012390,1722.001953 1041.996704,1721.990234 
	C1045.327026,1721.989868 1048.657227,1721.837280 1052.900879,1721.612793 
z"/>
<path fill="#382D83" opacity="1.000000" stroke="none" 
	d="
M1243.198242,14.019365 
	C1245.059692,13.349617 1247.839722,12.094384 1250.621216,12.091660 
	C1350.101074,11.994184 1449.581055,12.009748 1549.061035,12.046391 
	C1551.031494,12.047116 1553.001587,12.485903 1555.520508,13.384403 
	C1452.085083,14.038301 1348.101318,14.028111 1243.198242,14.019365 
z"/>
<path fill="#381741" opacity="1.000000" stroke="none" 
	d="
M920.481445,319.694153 
	C916.580627,320.426239 911.788086,321.882965 906.992126,321.894318 
	C842.471436,322.046600 777.950256,321.992981 713.429199,322.007141 
	C708.441650,322.008240 703.454163,322.134613 697.589355,322.237000 
	C701.871704,321.515198 707.029846,320.113312 712.191223,320.101166 
	C776.339355,319.950226 840.488037,320.006958 904.636536,319.989502 
	C909.620422,319.988159 914.604309,319.831390 920.481445,319.694153 
z"/>
<path fill="#381742" opacity="1.000000" stroke="none" 
	d="
M2096.354980,323.393616 
	C2091.542236,323.318085 2086.694580,322.092529 2081.844482,322.082275 
	C2019.754150,321.950958 1957.663208,322.020874 1895.572632,321.936188 
	C1890.985718,321.929932 1886.400024,321.128174 1881.213135,320.173004 
	C1900.923706,319.764984 1921.234741,319.958099 1941.545898,319.979767 
	C1989.166260,320.030579 2036.786743,319.950195 2084.406738,320.089600 
	C2088.439697,320.101410 2093.181641,318.337128 2096.354980,323.393616 
z"/>
<path fill="#381741" opacity="1.000000" stroke="none" 
	d="
M215.244568,321.616974 
	C154.710831,322.043976 93.482292,322.044861 32.253887,321.951569 
	C27.301558,321.944000 22.350212,321.290466 16.737593,320.433167 
	C76.953873,319.953705 137.831024,319.949707 198.707977,320.052979 
	C203.989212,320.061920 209.269211,320.778625 215.244568,321.616974 
z"/>
<path fill="#381741" opacity="1.000000" stroke="none" 
	d="
M2558.623779,320.793701 
	C2556.023438,321.187500 2553.423096,321.924530 2550.822754,321.924896 
	C2487.782471,321.933929 2424.741943,321.864319 2360.754639,321.714966 
	C2365.042480,321.081940 2370.276611,320.084412 2375.512695,320.073730 
	C2435.611572,319.950928 2495.710938,319.978088 2556.974121,320.161560 
	C2558.138184,320.357788 2558.623779,320.793732 2558.623779,320.793701 
z"/>
<path fill="#381741" opacity="1.000000" stroke="none" 
	d="
M2558.122070,302.800720 
	C2558.514404,304.061066 2558.750488,305.937134 2558.791992,308.680115 
	C2558.597412,309.546997 2558.076172,309.825378 2558.076172,309.825378 
	C2558.039551,307.689056 2558.002686,305.552734 2558.122070,302.800720 
z"/>
<path fill="#381741" opacity="1.000000" stroke="none" 
	d="
M2559.099609,312.755188 
	C2559.048096,313.308411 2559.030029,313.862732 2558.819824,314.984497 
	C2558.594482,315.550873 2558.076660,315.824646 2558.076660,315.824646 
	C2558.026367,315.013092 2557.976074,314.201508 2558.260010,312.921356 
	C2558.593994,312.452759 2559.099609,312.755188 2559.099609,312.755188 
z"/>
<path fill="#130B21" opacity="1.000000" stroke="none" 
	d="
M2558.029297,316.514130 
	C2558.076660,315.824646 2558.594482,315.550873 2558.843750,315.399963 
	C2559.050049,316.486786 2559.006836,317.724487 2558.793701,319.877960 
	C2558.623779,320.793732 2558.138184,320.357788 2557.888916,320.147003 
	C2557.753662,319.025330 2557.867920,318.114471 2558.029297,316.514130 
z"/>
<path fill="#382362" opacity="1.000000" stroke="none" 
	d="
M920.241882,14.120302 
	C919.855408,14.072312 919.908691,13.215028 919.928833,12.786356 
	C920.605591,12.397994 921.067322,12.718894 921.370361,13.760933 
	C921.406616,14.201482 920.628357,14.168291 920.241882,14.120302 
z"/>
<path fill="#130B21" opacity="1.000000" stroke="none" 
	d="
M2559.131592,311.876617 
	C2559.099609,312.755188 2558.593994,312.452759 2558.334961,312.315002 
	C2558.068604,311.786224 2558.061279,311.395172 2558.064941,310.414734 
	C2558.076172,309.825378 2558.597412,309.546997 2558.848145,309.393982 
	C2559.120605,309.826660 2559.142090,310.412354 2559.131592,311.876617 
z"/>
<path fill="#382364" opacity="1.000000" stroke="none" 
	d="
M1881.627563,12.481781 
	C1882.051636,12.352353 1882.077393,13.207930 1882.100586,13.636780 
	C1882.123901,14.065630 1881.351318,14.155561 1880.963135,14.172327 
	C1880.461914,13.534547 1880.671509,13.008587 1881.627563,12.481781 
z"/>
</svg>